PathFileType	4	(X/Y/Z)	/Users/itak/Documents/Research/Walk-IL/dataset/trc/00191_00008.trc
DataRate	CameraRate	NumFrames	NumMarkers	Units	OrigDataRate	OrigDataStartFrame	OrigNumFrames
100.000000	100.000000	4	53	mm	100.000000	596	795
Frame#	Time	RPSI			LPSI			L3			STRN			T10			C7			CLAV			RBAK			LBAK			LSHO			LUPA			LAEL			LAOL			LWTS			LWPS			LFRA			LIFD			LHPS			LHTS			RSHO			RUPA			RAEL			RAOL			RWTS			RWPS			RFRA			RIFD			RHTS			RHPS			RBHD			LFHD			RFHD			LBHD			LHIP			RHIP			RASI			LASI			LKNE			LTHI			LANK			LTIP			LTOE			LMT1			LMT5			LHEE			RKNE			RTHI			RANK			RTIP			RTOE			RMT1			RMT5			RHEE			
		X1	Y1	Z1	X2	Y2	Z2	X3	Y3	Z3	X4	Y4	Z4	X5	Y5	Z5	X6	Y6	Z6	X7	Y7	Z7	X8	Y8	Z8	X9	Y9	Z9	X10	Y10	Z10	X11	Y11	Z11	X12	Y12	Z12	X13	Y13	Z13	X14	Y14	Z14	X15	Y15	Z15	X16	Y16	Z16	X17	Y17	Z17	X18	Y18	Z18	X19	Y19	Z19	X20	Y20	Z20	X21	Y21	Z21	X22	Y22	Z22	X23	Y23	Z23	X24	Y24	Z24	X25	Y25	Z25	X26	Y26	Z26	X27	Y27	Z27	X28	Y28	Z28	X29	Y29	Z29	X30	Y30	Z30	X31	Y31	Z31	X32	Y32	Z32	X33	Y33	Z33	X34	Y34	Z34	X35	Y35	Z35	X36	Y36	Z36	X37	Y37	Z37	X38	Y38	Z38	X39	Y39	Z39	X40	Y40	Z40	X41	Y41	Z41	X42	Y42	Z42	X43	Y43	Z43	X44	Y44	Z44	X45	Y45	Z45	X46	Y46	Z46	X47	Y47	Z47	X48	Y48	Z48	X49	Y49	Z49	X50	Y50	Z50	X51	Y51	Z51	X52	Y52	Z52	X53	Y53	Z53	

597	5.96	968.059814453125	1044.78564453125	498.5416564941406	1058.959106445312	1049.66552734375	580.2804565429688	1008.470520019531	1086.075927734375	536.2308349609375	843.1126098632812	1300.375366210938	729.7548828125	1028.80615234375	1245.552124023438	504.4725341796875	994.1561279296875	1515.99267578125	554.2291870117188	868.6053466796875	1414.641845703125	712.1578979492188	953.7781372070312	1337.507934570312	439.6370239257812	1077.062622070312	1493.275756835938	608.78857421875	1092.880249023438	1484.335327148438	716.8031005859375	1175.568359375	1354.583862304688	733.4854125976562	1195.738403320312	1142.7138671875	762.3814697265625	1150.500854492188	1116.240966796875	690.552490234375	1127.24755859375	930.2415161132812	889.9405517578125	1193.896606445312	897.5408325195312	833.0731811523438	1204.1162109375	1035.636352539062	796.3648071289062	1099.4296875	752.4484252929688	929.3064575195312	1181.649169921875	833.0851440429688	864.6289672851562	1142.243041992188	857.0272216796875	920.3461303710938	814.2869873046875	1491.339599609375	490.9942626953125	773.8223266601562	1422.976196289062	433.4703063964844	739.9579467773438	1126.754638671875	404.6697998046875	822.2825927734375	1127.263427734375	457.5847473144531	666.9439697265625	959.3441772460938	600.0934448242188	668.226806640625	909.2721557617188	525.7766723632812	707.4854736328125	1057.679565429688	436.4617919921875	667.0407104492188	796.5631713867188	697.1619262695312	639.2498168945312	880.6261596679688	650.5264892578125	650.5097045898438	842.2584228515625	580.3115234375	891.838623046875	1677.221069335938	562.292236328125	860.6112060546875	1712.912109375	775.3717041015625	768.6813354492188	1700.728881835938	682.8248291015625	992.249267578125	1699.094970703125	652.1480102539062	1081.875854492188	997.8993530273438	742.0380249023438	772.3845825195312	999.78662109375	531.9824829101562	758.1539916992188	1034.09619140625	627.9871826171875	958.5006713867188	1044.42578125	792.8549194335938	941.27294921875	533.7011108398438	914.705810546875	993.1558837890625	667.646728515625	877.1597900390625	1068.05078125	64.56896209716797	873.6966552734375	1010.687377929688	310.8167724609375	906.2025756835938	903.8181762695312	79.66387939453125	1010.465087890625	901.679443359375	71.64967346191406	943.6217651367188	1020.414123535156	57.134521484375	976.689208984375	1054.555053710938	63.90833282470703	789.84033203125	835.1109619140625	501.6376037597656	611.35791015625	748.7870483398438	765.5267333984375	591.3012084960938	962.0621948242188	32.78847503662109	586.43798828125	861.3048095703125	383.7039489746094	641.4542236328125	837.0935668945312	42.75981521606445	773.1395874023438	907.8104858398438	40.88859558105469	762.947998046875	859.3187255859375	37.34176254272461	645.6200561523438	1045.890502929688	30.9636287689209	593.1351318359375	
598	5.97	966.7260131835938	1044.552368164062	504.4054870605469	1056.45556640625	1049.278930664062	587.4698486328125	1006.583862304688	1085.742065429688	542.7039794921875	838.678466796875	1299.824951171875	734.3232421875	1027.344482421875	1245.410400390625	511.4451293945312	991.749755859375	1515.744262695312	561.023193359375	864.5167236328125	1414.197021484375	717.4140625	953.1212768554688	1337.38037109375	445.6803894042969	1073.999633789062	1493.027221679688	616.6304931640625	1088.398315429688	1484.055786132812	724.8281860351562	1171.236572265625	1354.599487304688	742.6640014648438	1192.145874023438	1143.009399414062	772.0010375976562	1147.858032226562	1116.234008789062	699.765625	1124.017333984375	929.9521484375	898.9373168945312	1191.233032226562	897.80419921875	842.375	1200.899047851562	1036.015625	805.992919921875	1097.090087890625	751.9475708007812	937.70068359375	1179.243530273438	833.2469482421875	873.7318725585938	1139.281127929688	856.8177490234375	929.2327270507812	812.5704956054688	1490.859619140625	495.6759948730469	772.9038696289062	1422.470947265625	437.5458068847656	739.6432495117188	1126.09716796875	408.6754760742188	821.5950927734375	1126.781616210938	462.1845092773438	665.4946899414062	958.43603515625	603.4278564453125	667.2962036132812	908.4686889648438	529.0473022460938	707.0841064453125	1056.985717773438	440.1329345703125	665.3499755859375	795.4823608398438	700.2431030273438	637.7045288085938	879.617431640625	653.635498046875	649.372802734375	841.3590698242188	583.4085083007812	888.9514770507812	1677.042846679688	568.4439086914062	856.4824829101562	1712.106567382812	781.4093017578125	765.066162109375	1700.2529296875	688.3470458984375	988.8208618164062	1698.632934570312	658.9557495117188	1077.026611328125	997.64794921875	749.6090698242188	770.5565185546875	999.6206665039062	534.9601440429688	755.2222290039062	1033.64453125	630.9263305664062	952.9497680664062	1044.180419921875	798.59033203125	932.242431640625	534.917236328125	922.15771484375	985.1845703125	668.3182983398438	884.6201782226562	1050.696533203125	62.62631607055664	896.2882690429688	997.6304931640625	310.8007202148438	921.105224609375	882.8206787109375	83.45613861083984	1027.659301757812	882.5814208984375	74.06375122070312	960.9533081054688	999.9468383789062	58.24198532104492	997.9218139648438	1039.596313476562	60.1410026550293	812.0921020507812	833.9278564453125	501.2998962402344	612.0224609375	747.1158447265625	765.1019287109375	592.8706665039062	962.1411743164062	32.72649383544922	586.37255859375	860.0211181640625	383.6039428710938	641.84912109375	837.0219116210938	42.66663360595703	773.0247192382812	907.79931640625	40.80307769775391	762.9058227539062	859.232421875	37.15464019775391	645.3142700195312	1046.0537109375	30.95867156982422	593.1867065429688	
599	5.98	965.3234252929688	1044.287841796875	510.3357849121094	1053.876708984375	1048.860473632812	594.7169189453125	1004.611022949219	1085.380249023438	549.24951171875	834.222900390625	1299.265014648438	738.924072265625	1025.841186523438	1245.200561523438	518.4653930664062	989.3114013671875	1515.432006835938	567.837158203125	860.3449096679688	1413.620727539062	722.5797119140625	952.4290161132812	1337.193115234375	451.7856140136719	1070.908569335938	1492.71728515625	624.4631958007812	1083.898681640625	1483.699462890625	732.8255615234375	1166.8642578125	1354.522094726562	751.7630615234375	1188.48681640625	1143.203857421875	781.4943237304688	1145.129150390625	1116.15673828125	708.8632202148438	1120.738037109375	929.5255737304688	907.75341796875	1188.492065429688	897.9451904296875	851.4827270507812	1197.610717773438	1036.281982421875	815.4628295898438	1094.656616210938	751.2950439453125	945.84130859375	1176.754638671875	833.2743530273438	882.6151123046875	1136.249877929688	856.450439453125	937.9093627929688	810.8563842773438	1490.351806640625	500.399658203125	771.9855346679688	1421.934448242188	441.6753234863281	739.399658203125	1125.439697265625	412.6399230957031	820.904541015625	1126.273803710938	466.8468322753906	663.9310913085938	957.2943115234375	606.5137939453125	666.3985595703125	907.5191650390625	532.0211181640625	706.7332763671875	1056.271850585938	443.7115783691406	663.493408203125	794.09765625	702.9161987304688	636.0242309570312	878.3359985351562	656.3600463867188	648.2255859375	840.2621459960938	586.1148681640625	886.0304565429688	1676.831298828125	574.6342163085938	852.3485107421875	1711.2490234375	787.4715576171875	761.4403076171875	1699.722778320312	693.9014282226562	985.3751220703125	1698.13525390625	665.7817993164062	1072.06640625	997.3764038085938	757.1802368164062	768.7332763671875	999.4539184570312	537.943359375	752.3928833007812	1033.12841796875	633.8958129882812	947.2839965820312	1043.85791015625	804.3023071289062	923.4830322265625	535.9909057617188	929.4281616210938	977.390869140625	668.9065551757812	891.943603515625	1032.802612304688	61.01772689819336	917.7850341796875	984.4915771484375	310.9125671386719	935.3926391601562	861.6642456054688	87.42909240722656	1043.7021484375	863.2297973632812	76.75716400146484	977.2053833007812	979.1014404296875	59.55228042602539	1017.939697265625	1024.02197265625	56.86740875244141	833.3604736328125	832.6199340820312	500.9482421875	612.9559326171875	745.4096069335938	764.6484375	594.5617065429688	962.2094116210938	32.69380569458008	586.3320922851562	858.7164306640625	383.3955078125	642.5403442382812	836.9408569335938	42.54426956176758	772.9364624023438	907.6676635742188	40.79171371459961	762.8008422851562	859.1478881835938	36.98421859741211	644.9829711914062	1046.203369140625	30.96648025512695	593.26708984375	
600	5.99	963.8574829101562	1043.987426757812	516.3431396484375	1051.23291015625	1048.408203125	602.0266723632812	1002.563171386719	1084.991088867188	555.8748779296875	829.7437744140625	1298.694702148438	743.55908203125	1024.292114257812	1244.92431640625	525.5324096679688	986.8405151367188	1515.059936523438	574.6737670898438	856.0677490234375	1412.92822265625	727.6502685546875	951.6943359375	1336.950927734375	457.955322265625	1067.78759765625	1492.34619140625	632.28369140625	1079.3818359375	1483.266967773438	740.7935791015625	1162.452758789062	1354.352416992188	760.7770385742188	1184.759887695312	1143.30126953125	790.8484497070312	1142.299682617188	1116.008666992188	717.83154296875	1117.401611328125	928.9774169921875	916.3768920898438	1185.671142578125	897.9738159179688	860.40234375	1194.245849609375	1036.440673828125	824.7683715820312	1092.125854492188	750.5111694335938	953.7363891601562	1174.175170898438	833.1817016601562	891.29248046875	1133.134521484375	855.9449462890625	946.3787841796875	809.150390625	1489.833374023438	505.1513061523438	771.0642700195312	1421.39013671875	445.8577270507812	739.2319946289062	1124.807250976562	416.5445556640625	820.2031860351562	1125.761108398438	471.5758361816406	662.2686767578125	955.9443969726562	609.358642578125	665.5365600585938	906.4522094726562	534.705322265625	706.4312133789062	1055.562255859375	447.1965637207031	661.470947265625	792.4298095703125	705.18017578125	634.205078125	876.7986450195312	658.6926879882812	647.0696411132812	838.9956665039062	588.4319458007812	883.0743408203125	1676.588989257812	580.8592529296875	848.2139282226562	1710.347778320312	793.563720703125	757.8047485351562	1699.138916015625	699.4915161132812	981.91015625	1697.601196289062	672.62255859375	1066.987060546875	997.0711059570312	764.76416015625	766.9168090820312	999.2811279296875	540.94287109375	749.6160278320312	1032.57763671875	636.891845703125	941.4920043945312	1043.444580078125	809.9789428710938	914.97265625	536.8970947265625	936.5088500976562	969.8045043945312	669.387939453125	899.141845703125	1014.471984863281	59.70025634765625	938.2002563476562	971.3040161132812	311.1184997558594	949.0543823242188	840.4158935546875	91.5509033203125	1058.6064453125	843.7042236328125	79.69554901123047	992.38232421875	957.957763671875	61.02902221679688	1036.761840820312	1007.951721191406	54.05551147460938	853.6475219726562	831.1793212890625	500.5814208984375	614.1841430664062	743.624755859375	764.1763916015625	596.3850708007812	962.2628173828125	32.69604110717773	586.3201293945312	857.3784790039062	383.0704650878906	643.5492553710938	836.8539428710938	42.39948272705078	772.8767700195312	907.4061889648438	40.86445236206055	762.6383666992188	859.058349609375	36.83588027954102	644.6481323242188	1046.33203125	30.99839401245117	593.3694458007812	
